# xmcd
#
# Track frame offsets: 
#        150
#        18288
#        40631
#        60858
#        76832
#        90445
#        119053
#        141485
#        151827
#        170818
#        195267
#        206563
#        224138
#        236960
#        249587
#        264977
#        273819
#        287479
#        301993
#
# Disc length: 4195 seconds
#
# Revision: 0
# Processed by: cddbd v1.5.2PL0 Copyright (c) Steve Scherf et al.
# Submitted via: ExactAudioCopy v0.99pb5
#
DISCID=07106113
DTITLE=Various Artist - Sounds Like Nashville
DYEAR=2015
DGENRE=Country
TTITLE0=Joe Ely - Boxcars
TTITLE1=Darius Rucker - Wagon Wheel
TTITLE2=Nitty Gritty Dirt Band - Keep On The Sunny Side
TTITLE3=Rosanne Cash - Girl From The North Country
TTITLE4=The Band - Long Black Veil
TTITLE5=The Flying Burrito Bros - Wild Horses
TTITLE6=Gene Clark - For A Spanish Guitar
TTITLE7=The Louvin Brothers - The Christian Life
TTITLE8=Bobbie Gentry - Ode To Billie Joe
TTITLE9=Lucinda Williams - Lake Charles
TTITLE10=Kitty Wells - It Wasn't God Who Made Honky Tonk Angels
TTITLE11=Nanci Griffith - Lone Star State of Mind
TTITLE12=Patsy Cline - I FAll To Pieces
TTITLE13=Merle Haggard - Sing Me Back Home
TTITLE14=Nitty Gritty Band - Wreck On The Highway
TTITLE15=Jerry Lee Lewis - Waiting For A Train
TTITLE16=Slim Whitman - Tumbling Tumbleweeds
TTITLE17=Glen Campbell - Rhinestone Cowboy
TTITLE18=Hank Williams - I'm So Lonesome I Could Cry
EXTD=
EXTT0=
EXTT1=
EXTT2=
EXTT3=
EXTT4=
EXTT5=
EXTT6=
EXTT7=
EXTT8=
EXTT9=
EXTT10=
EXTT11=
EXTT12=
EXTT13=
EXTT14=
EXTT15=
EXTT16=
EXTT17=
EXTT18=
PLAYORDER=
